<svg width="50" height="50" viewBox="0 0 50 50" fill="none" xmlns="http://www.w3.org/2000/svg">
<rect width="50" height="50" rx="3" fill="url(#paint0_linear_0_1)"/>
<mask id="path-2-inside-1_0_1" fill="white">
<path d="M14.7186 24.1779L18.7783 22.5326C18.9687 22.478 19.1636 22.4793 19.3631 22.5365C19.5837 22.5877 19.7183 22.6978 19.7669 22.867C19.8154 23.0362 19.663 23.263 19.3098 23.5474C17.7336 24.7549 16.2688 25.5527 14.9154 25.9409C13.562 26.3292 12.3034 26.3698 11.1396 26.0628C9.99094 25.7286 9.24371 24.9588 8.89792 23.7534C8.44294 22.1674 8.89745 20.4807 10.2615 18.6933C11.6255 16.9059 13.4823 15.3204 15.8319 13.9368C18.1814 12.5533 20.5616 11.5158 22.9724 10.8242C25.3832 10.1326 27.4875 9.76926 29.2856 9.7341C31.0987 9.67173 32.6976 9.97977 34.0824 10.6582C35.4671 11.3367 36.3658 12.3949 36.7783 13.8329C37.0573 14.8057 36.7518 15.9347 35.8617 17.22C34.9867 18.478 33.8728 19.6215 32.5201 20.6504C31.1824 21.6521 29.8174 22.4785 28.425 23.1297C28.0807 23.3658 27.9268 23.5473 27.9632 23.6742C28.0117 23.8434 29.6842 25.0458 32.9805 27.2816C36.2918 29.4901 38.0264 30.8693 38.1841 31.4191C38.3418 31.9689 38.1566 32.5599 37.6284 33.192C37.1275 33.8393 36.4752 34.2781 35.6716 34.5087C34.8892 34.7331 34.1504 34.8306 33.4554 34.8011C32.7664 34.7928 32.0546 34.6651 31.32 34.4181C30.6065 34.165 29.9626 33.9149 29.3881 33.6677C28.8137 33.4205 28.147 33.051 27.3879 32.5593C26.644 32.0403 26.086 31.6511 25.7141 31.3916C24.4106 30.438 23.4428 29.6972 22.8106 29.169C21.2251 32.8968 20.3539 34.8861 20.197 35.1371C20.0552 35.3609 19.9466 35.5408 19.8712 35.6769C19.7897 35.7918 19.7264 35.8901 19.6811 35.9717C19.5605 36.1894 19.3733 36.3347 19.1195 36.4075C18.8657 36.4803 18.515 36.2948 18.0673 35.851C18.0942 35.5458 18.4299 34.4424 19.0746 32.5409C19.7193 30.6395 20.2391 29.3002 20.6342 28.5231C20.7938 28.0425 20.8585 27.7493 20.8281 27.6435C20.7978 27.5378 20.6315 27.4368 20.3292 27.3404C19.8092 27.1233 19.4946 26.8245 19.3854 26.4439C19.2701 26.0421 19.4934 25.7034 20.0552 25.4278L22.4246 24.2331C23.6482 21.1585 24.4033 19.3627 24.6898 18.8456C24.9764 18.3285 25.3205 18.0124 25.7223 17.8971C26.1241 17.7819 26.3796 17.9146 26.4888 18.2952C26.5677 18.5701 26.47 19.0673 26.1958 19.7868L25.1383 22.8023C25.3286 22.7477 26.1878 22.2724 27.716 21.3763C29.2653 20.4741 30.8325 19.3951 32.4177 18.1393C34.0029 16.8835 34.7045 15.9384 34.5225 15.304C34.2555 14.3735 32.811 14.2844 30.1887 15.0366C28.2432 15.5947 25.9868 16.5052 23.4195 17.7681C20.8733 19.0249 18.717 20.2844 16.9505 21.5464C15.1991 22.7812 14.3962 23.6524 14.5418 24.1599C14.5539 24.2022 14.6129 24.2082 14.7186 24.1779Z"/>
</mask>
<path d="M14.7186 24.1779L18.7783 22.5326C18.9687 22.478 19.1636 22.4793 19.3631 22.5365C19.5837 22.5877 19.7183 22.6978 19.7669 22.867C19.8154 23.0362 19.663 23.263 19.3098 23.5474C17.7336 24.7549 16.2688 25.5527 14.9154 25.9409C13.562 26.3292 12.3034 26.3698 11.1396 26.0628C9.99094 25.7286 9.24371 24.9588 8.89792 23.7534C8.44294 22.1674 8.89745 20.4807 10.2615 18.6933C11.6255 16.9059 13.4823 15.3204 15.8319 13.9368C18.1814 12.5533 20.5616 11.5158 22.9724 10.8242C25.3832 10.1326 27.4875 9.76926 29.2856 9.7341C31.0987 9.67173 32.6976 9.97977 34.0824 10.6582C35.4671 11.3367 36.3658 12.3949 36.7783 13.8329C37.0573 14.8057 36.7518 15.9347 35.8617 17.22C34.9867 18.478 33.8728 19.6215 32.5201 20.6504C31.1824 21.6521 29.8174 22.4785 28.425 23.1297C28.0807 23.3658 27.9268 23.5473 27.9632 23.6742C28.0117 23.8434 29.6842 25.0458 32.9805 27.2816C36.2918 29.4901 38.0264 30.8693 38.1841 31.4191C38.3418 31.9689 38.1566 32.5599 37.6284 33.192C37.1275 33.8393 36.4752 34.2781 35.6716 34.5087C34.8892 34.7331 34.1504 34.8306 33.4554 34.8011C32.7664 34.7928 32.0546 34.6651 31.32 34.4181C30.6065 34.165 29.9626 33.9149 29.3881 33.6677C28.8137 33.4205 28.147 33.051 27.3879 32.5593C26.644 32.0403 26.086 31.6511 25.7141 31.3916C24.4106 30.438 23.4428 29.6972 22.8106 29.169C21.2251 32.8968 20.3539 34.8861 20.197 35.1371C20.0552 35.3609 19.9466 35.5408 19.8712 35.6769C19.7897 35.7918 19.7264 35.8901 19.6811 35.9717C19.5605 36.1894 19.3733 36.3347 19.1195 36.4075C18.8657 36.4803 18.515 36.2948 18.0673 35.851C18.0942 35.5458 18.4299 34.4424 19.0746 32.5409C19.7193 30.6395 20.2391 29.3002 20.6342 28.5231C20.7938 28.0425 20.8585 27.7493 20.8281 27.6435C20.7978 27.5378 20.6315 27.4368 20.3292 27.3404C19.8092 27.1233 19.4946 26.8245 19.3854 26.4439C19.2701 26.0421 19.4934 25.7034 20.0552 25.4278L22.4246 24.2331C23.6482 21.1585 24.4033 19.3627 24.6898 18.8456C24.9764 18.3285 25.3205 18.0124 25.7223 17.8971C26.1241 17.7819 26.3796 17.9146 26.4888 18.2952C26.5677 18.5701 26.47 19.0673 26.1958 19.7868L25.1383 22.8023C25.3286 22.7477 26.1878 22.2724 27.716 21.3763C29.2653 20.4741 30.8325 19.3951 32.4177 18.1393C34.0029 16.8835 34.7045 15.9384 34.5225 15.304C34.2555 14.3735 32.811 14.2844 30.1887 15.0366C28.2432 15.5947 25.9868 16.5052 23.4195 17.7681C20.8733 19.0249 18.717 20.2844 16.9505 21.5464C15.1991 22.7812 14.3962 23.6524 14.5418 24.1599C14.5539 24.2022 14.6129 24.2082 14.7186 24.1779Z" fill="white"/>
<path d="M14.7186 24.1779L15.5459 27.0616L15.6984 27.0178L15.8454 26.9582L14.7186 24.1779ZM18.7783 22.5326L17.9511 19.6489L17.7986 19.6927L17.6516 19.7523L18.7783 22.5326ZM19.3631 22.5365L18.5362 25.4203L18.6105 25.4416L18.6858 25.4591L19.3631 22.5365ZM19.3098 23.5474L21.1342 25.9289L21.163 25.9069L21.1912 25.8841L19.3098 23.5474ZM11.1396 26.0628L10.3015 28.9434L10.3379 28.954L10.3744 28.9636L11.1396 26.0628ZM10.2615 18.6933L7.87656 16.8733L7.87656 16.8733L10.2615 18.6933ZM15.8319 13.9368L14.3096 11.3517L14.3096 11.3517L15.8319 13.9368ZM29.2856 9.7341L29.3442 12.7335L29.3665 12.7331L29.3887 12.7323L29.2856 9.7341ZM34.0824 10.6582L32.7624 13.3523L32.7624 13.3523L34.0824 10.6582ZM35.8617 17.22L38.3246 18.933L38.328 18.928L35.8617 17.22ZM32.5201 20.6504L34.3183 23.0517L34.3273 23.045L34.3363 23.0382L32.5201 20.6504ZM28.425 23.1297L27.1541 20.4122L26.9312 20.5165L26.7283 20.6556L28.425 23.1297ZM32.9805 27.2816L31.2965 29.7643L31.3061 29.7709L31.3159 29.7774L32.9805 27.2816ZM37.6284 33.192L35.3262 31.2685L35.2903 31.3115L35.256 31.3558L37.6284 33.192ZM33.4554 34.8011L33.5825 31.8038L33.5371 31.8019L33.4916 31.8013L33.4554 34.8011ZM31.32 34.4181L30.317 37.2455L30.3403 37.2538L30.3638 37.2617L31.32 34.4181ZM29.3881 33.6677L28.2023 36.4234V36.4234L29.3881 33.6677ZM27.3879 32.5593L25.6715 35.0197L25.7136 35.0491L25.7567 35.077L27.3879 32.5593ZM25.7141 31.3916L23.9428 33.8129L23.97 33.8328L23.9976 33.852L25.7141 31.3916ZM22.8106 29.169L24.7341 26.8668L21.6321 24.2751L20.05 27.9948L22.8106 29.169ZM20.197 35.1371L22.7311 36.7428L22.736 36.735L22.741 36.7271L20.197 35.1371ZM19.8712 35.6769L22.3186 37.4119L22.4147 37.2763L22.4952 37.131L19.8712 35.6769ZM19.6811 35.9717L22.3051 37.4258L22.3051 37.4258L19.6811 35.9717ZM18.0673 35.851L15.0788 35.588L14.9554 36.9906L15.9554 37.9818L18.0673 35.851ZM20.6342 28.5231L23.3084 29.8827L23.4103 29.6822L23.4812 29.4688L20.6342 28.5231ZM20.3292 27.3404L19.1737 30.1089L19.2939 30.1591L19.4179 30.1986L20.3292 27.3404ZM20.0552 25.4278L21.3765 28.1211L21.3912 28.1139L21.4058 28.1065L20.0552 25.4278ZM22.4246 24.2331L23.7753 26.9119L24.7912 26.3996L25.212 25.3424L22.4246 24.2331ZM26.1958 19.7868L23.3925 18.7184L23.3781 18.7561L23.3648 18.7941L26.1958 19.7868ZM25.1383 22.8023L22.3073 21.8096L20.3867 27.2864L25.9655 25.686L25.1383 22.8023ZM27.716 21.3763L26.2063 18.7838L26.1984 18.7884L27.716 21.3763ZM32.4177 18.1393L30.5548 15.7878V15.7878L32.4177 18.1393ZM23.4195 17.7681L22.0953 15.0762L22.0916 15.078L23.4195 17.7681ZM16.9505 21.5464L18.6792 23.9983L18.6869 23.9929L18.6945 23.9874L16.9505 21.5464ZM14.7186 24.1779L15.8454 26.9582L19.9051 25.313L18.7783 22.5326L17.6516 19.7523L13.5919 21.3975L14.7186 24.1779ZM18.7783 22.5326L19.6056 25.4163C19.2288 25.5244 18.8499 25.5103 18.5362 25.4203L19.3631 22.5365L20.1899 19.6527C19.4773 19.4484 18.7086 19.4316 17.9511 19.6489L18.7783 22.5326ZM19.3631 22.5365L18.6858 25.4591C18.4783 25.411 18.1091 25.2898 17.7294 24.9791C17.3185 24.6428 17.025 24.1887 16.8832 23.6942L19.7669 22.867L22.6506 22.0398C22.2133 20.5154 20.9687 19.8291 20.0404 19.614L19.3631 22.5365ZM19.7669 22.867L16.8832 23.6942C16.5547 22.5492 17.0545 21.7057 17.1987 21.4911C17.3653 21.2431 17.5031 21.1505 17.4283 21.2107L19.3098 23.5474L21.1912 25.8841C21.4697 25.6599 21.8603 25.3117 22.1792 24.8369C22.4758 24.3954 23.0276 23.354 22.6506 22.0398L19.7669 22.867ZM19.3098 23.5474L17.4854 21.1659C16.0943 22.2316 14.9654 22.8056 14.0882 23.0573L14.9154 25.9409L15.7427 28.8246C17.5723 28.2998 19.3729 27.2782 21.1342 25.9289L19.3098 23.5474ZM14.9154 25.9409L14.0882 23.0573C13.1651 23.3221 12.4629 23.3093 11.9048 23.1621L11.1396 26.0628L10.3744 28.9636C12.1439 29.4304 13.9589 29.3363 15.7427 28.8246L14.9154 25.9409ZM11.1396 26.0628L11.9777 23.1823C11.9043 23.1609 11.8706 23.1424 11.863 23.138C11.8569 23.1344 11.8624 23.1372 11.8703 23.1453C11.8778 23.153 11.8722 23.15 11.8574 23.1232C11.8417 23.0948 11.8125 23.0337 11.7816 22.9262L8.89792 23.7534L6.01423 24.5807C6.62754 26.7186 8.10737 28.305 10.3015 28.9434L11.1396 26.0628ZM8.89792 23.7534L11.7816 22.9262C11.6758 22.5573 11.6329 21.8413 12.6464 20.5132L10.2615 18.6933L7.87656 16.8733C6.16204 19.12 5.21008 21.7775 6.01423 24.5807L8.89792 23.7534ZM10.2615 18.6933L12.6464 20.5132C13.7307 19.0923 15.2695 17.7494 17.3541 16.522L15.8319 13.9368L14.3096 11.3517C11.695 12.8913 9.52025 14.7194 7.87656 16.8733L10.2615 18.6933ZM15.8319 13.9368L17.3541 16.522C19.5044 15.2558 21.6523 14.3239 23.7996 13.7079L22.9724 10.8242L22.1451 7.94051C19.4709 8.70766 16.8585 9.85084 14.3096 11.3517L15.8319 13.9368ZM22.9724 10.8242L23.7996 13.7079C26.0506 13.0621 27.886 12.762 29.3442 12.7335L29.2856 9.7341L29.2269 6.73467C27.0891 6.77648 24.7157 7.2031 22.1451 7.94051L22.9724 10.8242ZM29.2856 9.7341L29.3887 12.7323C30.7966 12.6839 31.8919 12.9257 32.7624 13.3523L34.0824 10.6582L35.4023 7.9642C33.5033 7.03381 31.4007 6.65956 29.1824 6.73587L29.2856 9.7341ZM34.0824 10.6582L32.7624 13.3523C33.4121 13.6706 33.724 14.0656 33.8946 14.6602L36.7783 13.8329L39.662 13.0057C39.0075 10.7242 37.5221 9.0028 35.4023 7.9642L34.0824 10.6582ZM36.7783 13.8329L33.8946 14.6602C33.8611 14.5433 33.8951 14.5055 33.8626 14.6256C33.8237 14.7695 33.7071 15.0619 33.3954 15.512L35.8617 17.22L38.328 18.928C39.4489 17.3095 40.2992 15.227 39.662 13.0057L36.7783 13.8329ZM35.8617 17.22L33.3989 15.507C32.7212 16.4813 31.8341 17.403 30.7039 18.2626L32.5201 20.6504L34.3363 23.0382C35.9115 21.84 37.2522 20.4748 38.3246 18.933L35.8617 17.22ZM32.5201 20.6504L30.7219 18.2491C29.5346 19.1382 28.345 19.8553 27.1541 20.4122L28.425 23.1297L29.6959 25.8472C31.2898 25.1018 32.8303 24.166 34.3183 23.0517L32.5201 20.6504ZM28.425 23.1297L26.7283 20.6556C26.4749 20.8294 26.0955 21.111 25.7635 21.5024C25.5456 21.7592 24.6222 22.9071 25.0795 24.5014L27.9632 23.6742L30.8469 22.8469C31.0574 23.5808 30.9327 24.2231 30.7749 24.6372C30.6277 25.0234 30.432 25.274 30.3393 25.3834C30.1612 25.5934 30.0308 25.6662 30.1217 25.6039L28.425 23.1297ZM27.9632 23.6742L25.0795 24.5014C25.2728 25.1753 25.6622 25.6095 25.6977 25.6517C25.8184 25.7948 25.9329 25.9062 26.0021 25.9713C26.147 26.1076 26.303 26.2362 26.4343 26.3408C26.7081 26.5591 27.0724 26.8294 27.5026 27.1387C28.373 27.7644 29.6424 28.6424 31.2965 29.7643L32.9805 27.2816L34.6644 24.7988C33.0222 23.6849 31.8073 22.8438 31.0052 22.2671C30.5992 21.9752 30.3303 21.7734 30.1739 21.6488C30.0901 21.582 30.0817 21.5714 30.1129 21.6008C30.1253 21.6125 30.1958 21.6785 30.285 21.7843C30.3302 21.8379 30.4101 21.9368 30.4973 22.0727C30.5703 22.1865 30.7354 22.4584 30.8469 22.8469L27.9632 23.6742ZM32.9805 27.2816L31.3159 29.7774C32.9473 30.8655 34.1279 31.7084 34.8978 32.3205C35.2876 32.6304 35.5152 32.8365 35.6285 32.952C35.6851 33.0097 35.6722 33.0035 35.6268 32.9412C35.6035 32.9093 35.4197 32.6623 35.3004 32.2463L38.1841 31.4191L41.0678 30.5918C40.909 30.0384 40.6365 29.628 40.4753 29.4068C40.2919 29.1553 40.0917 28.9338 39.9118 28.7504C39.552 28.3836 39.1095 28.0038 38.632 27.6241C37.6673 26.8571 36.325 25.9062 34.645 24.7857L32.9805 27.2816ZM38.1841 31.4191L35.3004 32.2463C35.2039 31.9098 35.233 31.5939 35.3008 31.3775C35.3578 31.1957 35.4168 31.1602 35.3262 31.2685L37.6284 33.192L39.9306 35.1155C40.7955 34.0804 41.6082 32.4755 41.0678 30.5918L38.1841 31.4191ZM37.6284 33.192L35.256 31.3558C35.1546 31.4869 35.0488 31.5663 34.8444 31.625L35.6716 34.5087L36.4989 37.3924C37.9017 36.9899 39.1004 36.1916 40.0008 35.0283L37.6284 33.192ZM35.6716 34.5087L34.8444 31.625C34.3204 31.7753 33.9059 31.8175 33.5825 31.8038L33.4554 34.8011L33.3282 37.7984C34.3949 37.8437 35.458 37.691 36.4989 37.3924L35.6716 34.5087ZM33.4554 34.8011L33.4916 31.8013C33.1518 31.7972 32.7506 31.7341 32.2761 31.5746L31.32 34.4181L30.3638 37.2617C31.3585 37.5961 32.3809 37.7884 33.4191 37.8009L33.4554 34.8011ZM31.32 34.4181L32.3229 31.5907C31.6589 31.3552 31.0773 31.1286 30.574 30.912L29.3881 33.6677L28.2023 36.4234C28.8478 36.7012 29.5542 36.9749 30.317 37.2455L31.32 34.4181ZM29.3881 33.6677L30.574 30.912C30.206 30.7537 29.6933 30.4783 29.0192 30.0415L27.3879 32.5593L25.7567 35.077C26.6006 35.6238 27.4214 36.0873 28.2023 36.4234L29.3881 33.6677ZM27.3879 32.5593L29.1044 30.0988C28.3604 29.5798 27.8025 29.1906 27.4305 28.9311L25.7141 31.3916L23.9976 33.852C24.3696 34.1115 24.9276 34.5008 25.6715 35.0197L27.3879 32.5593ZM25.7141 31.3916L27.4853 28.9703C26.1946 28.0261 25.2899 27.3312 24.7341 26.8668L22.8106 29.169L20.8871 31.4712C21.5956 32.0632 22.6266 32.85 23.9428 33.8129L25.7141 31.3916ZM22.8106 29.169L20.05 27.9948C19.2585 29.8557 18.6492 31.2734 18.22 32.2534C18.0048 32.7448 17.8397 33.115 17.722 33.3717C17.5611 33.7223 17.5662 33.686 17.653 33.5471L20.197 35.1371L22.741 36.7271C22.9062 36.4627 23.0791 36.0836 23.1752 35.8742C23.3144 35.5707 23.4957 35.1636 23.7161 34.6603C24.1581 33.6509 24.7772 32.2101 25.5713 30.3432L22.8106 29.169ZM20.197 35.1371L17.6629 33.5314C17.5081 33.7756 17.3639 34.012 17.2472 34.2227L19.8712 35.6769L22.4952 37.131C22.5292 37.0696 22.6023 36.9461 22.7311 36.7428L20.197 35.1371ZM19.8712 35.6769L17.4238 33.9419C17.307 34.1066 17.1756 34.3037 17.0571 34.5176L19.6811 35.9717L22.3051 37.4258C22.2965 37.4415 22.2901 37.4523 22.2869 37.4576C22.2836 37.463 22.2825 37.4647 22.2841 37.4622C22.2856 37.4598 22.2892 37.4544 22.2951 37.4457C22.301 37.437 22.3087 37.4258 22.3186 37.4119L19.8712 35.6769ZM19.6811 35.9717L17.0571 34.5176C17.1836 34.2893 17.3677 34.0626 17.6112 33.8737C17.8517 33.6871 18.0941 33.5806 18.2923 33.5238L19.1195 36.4075L19.9467 39.2912C20.9138 39.0137 21.7736 38.385 22.3051 37.4258L19.6811 35.9717ZM19.1195 36.4075L18.2923 33.5238C19.2114 33.2601 19.8969 33.5802 20.0685 33.6709C20.2608 33.7726 20.3013 33.8414 20.1791 33.7203L18.0673 35.851L15.9554 37.9818C16.281 38.3045 16.7207 38.6878 17.2637 38.975C17.7861 39.2512 18.7738 39.6276 19.9467 39.2912L19.1195 36.4075ZM18.0673 35.851L21.0557 36.1141C21.0387 36.308 21.0059 36.394 21.0506 36.2204C21.0808 36.1033 21.1316 35.9232 21.2093 35.668C21.3638 35.1605 21.5973 34.4434 21.9157 33.5042L19.0746 32.541L16.2334 31.5777C15.9072 32.54 15.6505 33.3253 15.4692 33.9212C15.3319 34.3723 15.1256 35.0567 15.0788 35.588L18.0673 35.851ZM19.0746 32.541L21.9157 33.5042C22.558 31.6098 23.0197 30.4505 23.3084 29.8827L20.6342 28.5231L17.9599 27.1636C17.4585 28.1499 16.8805 29.6692 16.2334 31.5777L19.0746 32.541ZM20.6342 28.5231L23.4812 29.4688C23.5748 29.1869 23.6674 28.8819 23.732 28.5888C23.764 28.4439 23.8024 28.243 23.822 28.0152C23.8363 27.8493 23.8718 27.3739 23.7118 26.8163L20.8281 27.6435L17.9444 28.4708C17.8633 28.188 17.8436 27.9545 17.8378 27.8213C17.8317 27.6791 17.8384 27.5674 17.8441 27.5008C17.8501 27.4309 17.8579 27.3789 17.8627 27.3501C17.8677 27.32 17.8717 27.3014 17.8728 27.2967C17.8744 27.2892 17.8703 27.3088 17.8547 27.3626C17.8397 27.4143 17.8178 27.4851 17.7871 27.5775L20.6342 28.5231ZM20.8281 27.6435L23.7118 26.8163C23.3785 25.6545 22.515 25.0927 22.2385 24.9246C21.8657 24.6981 21.4953 24.5634 21.2405 24.4821L20.3292 27.3404L19.4179 30.1986C19.4654 30.2138 19.3293 30.1777 19.1228 30.0523C19.014 29.9862 18.8164 29.8538 18.6059 29.6324C18.3933 29.4088 18.1038 29.0262 17.9444 28.4708L20.8281 27.6435ZM20.3292 27.3404L21.4847 24.5718C21.4662 24.5641 21.5958 24.6135 21.7694 24.7784C21.9616 24.961 22.1623 25.2444 22.2691 25.6166L19.3854 26.4439L16.5017 27.2711C16.9556 28.8533 18.1849 29.6962 19.1737 30.1089L20.3292 27.3404ZM19.3854 26.4439L22.2691 25.6166C22.3439 25.8773 22.3858 26.2116 22.331 26.5873C22.2758 26.9656 22.1367 27.2885 21.9712 27.5396C21.8128 27.7799 21.6474 27.9297 21.5461 28.009C21.445 28.088 21.3777 28.1205 21.3765 28.1211L20.0552 25.4278L18.7339 22.7344C18.2116 22.9906 17.486 23.4419 16.9616 24.2374C16.3514 25.1631 16.211 26.2578 16.5017 27.2711L19.3854 26.4439ZM20.0552 25.4278L21.4058 28.1065L23.7753 26.9119L22.4246 24.2331L21.074 21.5543L18.7045 22.749L20.0552 25.4278ZM22.4246 24.2331L25.212 25.3424C25.8208 23.8125 26.3074 22.6152 26.6741 21.743C26.8577 21.3064 27.0065 20.9626 27.1225 20.7051C27.1804 20.5765 27.2267 20.4771 27.2624 20.403C27.3005 20.3241 27.3163 20.2953 27.3139 20.2997L24.6898 18.8456L22.0658 17.3915C21.6614 18.1212 20.8193 20.1536 19.6372 23.1238L22.4246 24.2331ZM24.6898 18.8456L27.3139 20.2997C27.3763 20.1872 27.1823 20.5993 26.5496 20.7808L25.7223 17.8971L24.8951 15.0134C23.4588 15.4255 22.5765 16.4699 22.0658 17.3915L24.6898 18.8456ZM25.7223 17.8971L26.5496 20.7808C26.3437 20.8399 25.6402 20.992 24.8326 20.5725C23.9878 20.1338 23.6898 19.4176 23.6051 19.1224L26.4888 18.2952L29.3725 17.468C29.1786 16.7921 28.6983 15.8193 27.598 15.2478C26.5349 14.6957 25.5028 14.8391 24.8951 15.0134L25.7223 17.8971ZM26.4888 18.2952L23.6051 19.1224C23.5174 18.8166 23.5131 18.5786 23.5158 18.47C23.5172 18.4088 23.5217 18.3636 23.5249 18.3372C23.5281 18.3104 23.5309 18.2961 23.531 18.296C23.5311 18.2956 23.5292 18.3051 23.5239 18.3257C23.5187 18.346 23.5108 18.3746 23.4994 18.4119C23.4762 18.4878 23.4418 18.589 23.3925 18.7184L26.1958 19.7868L28.9991 20.8553C29.1691 20.4092 29.3246 19.9304 29.4184 19.4526C29.4984 19.0455 29.6085 18.2907 29.3725 17.468L26.4888 18.2952ZM26.1958 19.7868L23.3648 18.7941L22.3073 21.8096L25.1383 22.8023L27.9693 23.7951L29.0267 20.7796L26.1958 19.7868ZM25.1383 22.8023L25.9655 25.686C26.33 25.5815 26.6687 25.4059 26.7587 25.3605C26.9383 25.2698 27.1486 25.1567 27.3777 25.0299C27.84 24.7742 28.462 24.4165 29.2335 23.9641L27.716 21.3763L26.1984 18.7884C25.4418 19.2321 24.8701 19.5602 24.4732 19.7798C24.2727 19.8907 24.137 19.9628 24.0543 20.0045C24.0123 20.0257 24.0029 20.0295 24.017 20.0232C24.0247 20.0198 24.0501 20.0085 24.0886 19.9934C24.1212 19.9807 24.2011 19.9502 24.3111 19.9187L25.1383 22.8023ZM27.716 21.3763L29.2257 23.9687C30.9127 22.9863 32.5975 21.8242 34.2806 20.4908L32.4177 18.1393L30.5548 15.7878C29.0676 16.966 27.6178 17.9618 26.2063 18.7838L27.716 21.3763ZM32.4177 18.1393L34.2806 20.4908C35.1544 19.7986 35.9616 19.0581 36.5416 18.2768C37.0317 17.6166 37.9006 16.2002 37.4062 14.4767L34.5225 15.304L31.6388 16.1312C31.4799 15.5775 31.5694 15.1261 31.6435 14.9006C31.7112 14.6948 31.7807 14.6239 31.7239 14.7004C31.6748 14.7666 31.5651 14.8973 31.3606 15.0942C31.1599 15.2873 30.8949 15.5183 30.5548 15.7878L32.4177 18.1393ZM34.5225 15.304L37.4062 14.4767C37.1223 13.4872 36.4854 12.6921 35.6368 12.1866C34.8688 11.729 34.061 11.5843 33.4236 11.545C32.1792 11.4682 30.7639 11.7506 29.3615 12.1529L30.1887 15.0366L31.016 17.9203C31.5922 17.755 32.0555 17.6501 32.4174 17.5911C32.7898 17.5304 32.9878 17.5295 33.0541 17.5336C33.1389 17.5388 32.9063 17.5439 32.5661 17.3412C32.3822 17.2317 32.1799 17.0683 32.0011 16.8388C31.8213 16.6081 31.7048 16.3615 31.6388 16.1312L34.5225 15.304ZM30.1887 15.0366L29.3615 12.1529C27.191 12.7756 24.7625 13.7642 22.0953 15.0762L23.4195 17.7681L24.7437 20.4601C27.2111 19.2463 29.2953 18.4139 31.016 17.9203L30.1887 15.0366ZM23.4195 17.7681L22.0916 15.078C19.4418 16.386 17.1378 17.7257 15.2066 19.1054L16.9505 21.5464L18.6945 23.9874C20.2963 22.8431 22.3049 21.6639 24.7474 20.4582L23.4195 17.7681ZM16.9505 21.5464L15.2219 19.0945C14.2879 19.753 13.4456 20.4235 12.8288 21.0928C12.5236 21.4239 12.1645 21.8704 11.9025 22.42C11.6437 22.9628 11.3459 23.8987 11.6581 24.9872L14.5418 24.1599L17.4255 23.3327C17.665 24.1674 17.4129 24.804 17.3184 25.0021C17.2207 25.2071 17.1445 25.2635 17.2408 25.159C17.4269 24.9571 17.8618 24.5746 18.6792 23.9983L16.9505 21.5464ZM14.5418 24.1599L11.6581 24.9872C11.8496 25.6545 12.2693 26.2557 12.874 26.6664C13.4214 27.0383 13.9604 27.1471 14.2922 27.1808C14.9001 27.2425 15.3858 27.1075 15.5459 27.0616L14.7186 24.1779L13.8914 21.2942C13.9457 21.2786 14.3491 21.1557 14.898 21.2115C15.2004 21.2421 15.7158 21.3435 16.2454 21.7032C16.8323 22.1019 17.2401 22.6865 17.4255 23.3327L14.5418 24.1599Z" fill="white" mask="url(#path-2-inside-1_0_1)"/>
<defs>
<linearGradient id="paint0_linear_0_1" x1="25" y1="0" x2="25" y2="50" gradientUnits="userSpaceOnUse">
<stop stop-color="#F1D971"/>
<stop offset="0.490385" stop-color="#C152AC"/>
<stop offset="1" stop-color="#0B92AA"/>
</linearGradient>
</defs>
</svg>
